# xmcd
#
# Track frame offsets:
#	150
#	4229
#	21914
#	40906
#	43313
#	58560
#	77762
#	79162
#	97656
#	98976
#	116156
#	130978
#	147840
#	149634
#	165446
#	182008
#	196125
#	198932
#	210922
#	215170
#
# Disc length: 3521 seconds
#
# Revision: 1
# Processed by: cddbd v1.4PL0 Copyright (c) Steve Scherf et al.
# Submitted via: audiograbber 1.80
#
DISCID=1b0dbf14
DTITLE=Orange/blue - Songs Of Liberty
DYEAR=1900
DGENRE=
TTITLE0=Araond The World Within A Day
TTITLE1=the lowest point on erth
TTITLE2=the sun on your face
TTITLE3=theme from sol
TTITLE4=SOL (song of liberty)
TTITLE5=million years of rain
TTITLE6=i can't go on like that
TTITLE7=lena
TTITLE8=the saturn plain
TTITLE9=a little bit insane (lavalogyq)
TTITLE10=Who am i
TTITLE11=dance on a waterfall
TTITLE12=Do you mind if i call you a rainbow
TTITLE13=made for taday
TTITLE14=heaven was here name
TTITLE15=these things
TTITLE16=a charming introduction to an intercorse
TTITLE17=the smile
TTITLE18=all the lyrics are dead
TTITLE19=(bonus track) powerd by emotion
EXTD=Rip by\nLUKUTUS
EXTT0=
EXTT1=
EXTT2=
EXTT3=
EXTT4=
EXTT5=
EXTT6=
EXTT7=
EXTT8=
EXTT9=
EXTT10=
EXTT11=
EXTT12=
EXTT13=
EXTT14=
EXTT15=
EXTT16=
EXTT17=
EXTT18=
EXTT19=
PLAYORDER=
